<?xml version="1.0" encoding="utf-8"?>
<!-- Generator: Adobe Illustrator 26.1.0, SVG Export Plug-In . SVG Version: 6.00 Build 0)  -->
<svg version="1.1" id="Layer_1" xmlns="http://www.w3.org/2000/svg" xmlns:xlink="http://www.w3.org/1999/xlink" x="0px" y="0px"
	 viewBox="0 0 80 80" style="enable-background:new 0 0 80 80;" xml:space="preserve">
<style type="text/css">
	.st0{fill-rule:evenodd;clip-rule:evenodd;fill:#2394E0;}
	.st1{fill-rule:evenodd;clip-rule:evenodd;fill:#A1E367;}
	.st2{fill-rule:evenodd;clip-rule:evenodd;fill:#EF4136;}
</style>
<path class="st0" d="M45.4,24.9c2.6,1,4.7,2.7,6.4,4.9c-0.5,0.2-0.8,0.5-1.3,0.8c-0.2,0.2-0.3,0.3-0.5,0.5L50,31.1
	c-0.2,0.2-0.3,0.5-0.5,0.6c-0.3,0.6-0.6,1.2-0.8,1.9s-0.2,1.4,0,2.1c0.2,0.7,0.3,1.4,0.6,2s0.6,1.3,1.1,1.8c0.3,0.5,0.8,0.8,1.1,1.2
	c0.5,0.4,0.9,0.7,1.4,1c0.2,0.2,0.6,0.2,0.9,0.2H54c0.2,0,0.5-0.1,0.6-0.2C53,50,45,55.3,36.8,53.7c-3.6-0.8-6.8-2.7-9-5.7
	c1-0.6,1.8-1.4,2.5-2.4c0.8-1.1,1.3-2.4,1.6-3.7c0.2-0.8,0.2-1.8,0.1-2.6c-0.1-0.8-0.3-1.6-0.8-2.2L31.1,37
	c-0.2-0.2-0.3-0.5-0.5-0.6c-0.2-0.2-0.3-0.3-0.5-0.5l0.1-0.2c-0.5-0.5-1.1-0.8-1.8-1.1l0,0c-0.6-0.2-1.3-0.3-2-0.3
	c-0.3,0-0.7,0-1,0.1c1-3.4,3.3-6.2,6.2-8.2c0.4,0.8,0.9,1.4,1.4,2.2c0.6,0.7,1.1,1.4,1.8,1.9l0,0c0.6,0.6,1.4,1.1,2.1,1.6
	c0.8,0.6,2,0.6,2.9,0c1.6-1,2.9-2.2,4-3.8C44.4,27.1,45,26,45.4,24.9L45.4,24.9z"/>
<path class="st1" d="M53,43.3c0,0.2-0.1,0.2-0.2,0.3h-0.2v-0.3H53z M45.1,25.8c2.2,1,4.3,2.6,5.8,4.5c-0.1,0.2-0.2,0.2-0.2,0.2
	c-0.2,0.2-0.4,0.3-0.5,0.5L50,31.1c-0.2,0.2-0.3,0.5-0.5,0.6c-0.3,0.6-0.6,1.2-0.8,1.9c-0.2,0.6-0.2,1.4,0,2.1
	c0.2,0.7,0.3,1.4,0.6,2c0.1,0.2,0.2,0.2,0.2,0.3l-0.3,0.4v1.3l-0.5,0.4l-0.6-3.4L47.8,37l-1-1.1h-1.1l-0.5-0.5l-0.5,0.2l-1-1
	l-0.2,0.1l0.6,1.4h0.6v-0.3h0.3c0.2,0.6,0.5,0.2,0.5,0.6c0,1.4-1.8,2.4-2.7,2.6c0.1,0.2,0,0.5,0.3,0.5c0.6,0,0.3-0.2,1-0.2
	c0,1.4-1.6,3-2.2,4.1l0.3,2.1c0.1,0.5-1,1-1.3,1.4l0.2,0.8l-0.6,0.3c0,0.8-0.8,1.8-1.8,1.8h-1c0-1.1-0.8-2.7-0.8-3.7
	c0-0.7,0.3-0.8,0.3-1.6c0-0.8-0.8-1.9-0.8-2.1v-1.4H36c-0.2-0.3,0-0.5-0.5-0.5h-0.2c-0.7,0-0.6,0.3-1.3,0.3h-0.6
	c-0.6,0-1.6-1.9-1.6-2.1v-1.9c0-0.8,0.8-1.8,1.3-2.1v-0.8l0.7-0.7l0.5-0.1c0.8,0,0.8-0.5,1.3-0.5H37v1.1l1.6,0.7l0.2-0.7
	c0.8,0.2,1,0.5,1.8,0.5h0.3c0.6,0,0.6-0.8,0.6-1.4l-1.3,0.2l-0.5-1l0.1-0.2c1.6-1,2.9-2.2,4-3.8C44.3,27.3,44.7,26.6,45.1,25.8
	L45.1,25.8z M39,32.1c0.1,0.1,0.1,0.2,0.1,0.3c0,0.2-0.2,0.2-0.3,0.3l-0.2-0.6C38.7,32.2,38.9,32.2,39,32.1z M37.7,32.2
	c-0.2,0.5-0.2,0.9-0.6,0.3l0.5-0.2l-0.1-0.1L37.7,32.2L37.7,32.2z M35.8,31l-0.2,0.1l-0.8,0.8c-0.2,0.6-0.2,1-0.9,1
	c-0.4,0-0.2-0.1-0.8-0.2v-1.6h1.4L34,30l-0.2,0.1v-0.3l0.2-0.2c0.2,0.2,0.5,0.5,0.7,0.6l0,0C35.2,30.5,35.4,30.8,35.8,31L35.8,31z"
	/>
<path class="st2" d="M54,40.5c-0.1,0.1-0.2,0.1-0.2,0c-0.8-0.5-1.5-1.1-2.1-1.9c-0.8-0.9-1.3-2-1.4-3.1c-0.2-1,0-2.1,0.5-3
	c0.2-0.4,0.5-0.6,0.8-0.9c0.7-0.6,1.6-0.9,2.5-0.9c1.2,0,2.3,0.6,3,1.7c0.6,1,0.8,2.2,0.5,3.4C56.9,37.7,55.7,39.5,54,40.5z
	 M38.6,29.9c-0.2,0.1-0.3,0.1-0.4,0c-1.3-0.8-2.4-1.8-3.4-3c-1.1-1.4-1.9-3.1-2.2-4.9c-0.3-1.5,0-3.1,0.8-4.6c0.3-0.6,0.8-1,1.3-1.4
	c1.1-0.9,2.4-1.4,3.8-1.4c1.4,0.1,2.7,0.6,3.7,1.4c0.4,0.4,0.7,0.8,1,1.1c0.9,1.4,1.1,3.4,0.7,5.3C43.1,25.6,41.2,28.3,38.6,29.9z
	 M38.2,17.7c1.6,0,2.9,1.3,2.9,2.8s-1.3,2.9-2.9,2.9c-1.6,0-2.9-1.3-2.9-2.9l0,0C35.3,18.9,36.6,17.7,38.2,17.7z M26.4,46.9
	c-0.1,0.1-0.2,0.1-0.3,0c-1-0.6-1.8-1.3-2.4-2.1c-0.8-1-1.4-2.2-1.7-3.5c-0.2-1.1,0-2.3,0.6-3.4c0.2-0.4,0.6-0.7,0.9-1
	c0.8-0.6,1.8-1,2.7-1c1,0,1.9,0.4,2.6,1.1c0.3,0.2,0.5,0.5,0.7,0.8c0.6,1.1,0.8,2.5,0.5,3.8C29.8,43.8,28.4,45.7,26.4,46.9
	L26.4,46.9z M26.3,38c1.1,0,2.1,1,2.1,2.1c0,1.1-1,2.1-2.1,2.1c-1.1,0-2.1-1-2.1-2.1S25.2,38,26.3,38z M53.7,32.6
	c1,0,1.8,0.8,1.8,1.8c0,1-0.8,1.8-1.8,1.8c-1,0-1.8-0.8-1.8-1.8l0,0C52,33.5,52.8,32.6,53.7,32.6z"/>
</svg>
